<?xml version="1.0" standalone="no"?>
<!DOCTYPE svg PUBLIC "-//W3C//DTD SVG 1.1//EN" "http://www.w3.org/Graphics/SVG/1.1/DTD/svg11.dtd" >
<!--
2018-8-8: Created with FontForge (http://fontforge.org)
-->
<svg xmlns="http://www.w3.org/2000/svg" xmlns:xlink="http://www.w3.org/1999/xlink" version="1.1">
<metadata>
Created by FontForge 20150828 at Wed Aug  8 10:25:03 2018
 By Matteo Cantarelli

</metadata>
<defs>
<font id="gpt-icons" horiz-adv-x="512" >
  <font-face 
    font-family="gpt-icons"
    font-weight="400"
    font-stretch="normal"
    units-per-em="512"
    panose-1="2 0 5 3 0 0 0 0 0 0"
    ascent="448"
    descent="-64"
    bbox="-0.51876 -67 513 448.375"
    underline-thickness="25.6"
    underline-position="-51.2"
    unicode-range="U+0020-F122"
  />
    <missing-glyph />
    <glyph glyph-name="space" unicode=" " horiz-adv-x="200" 
 />
    <glyph glyph-name="sphere_wireframe-jpg" unicode="&#xf11c;" 
d="M232 -65c-28 3 -55 9 -79 20c-9 4 -22 11 -28 15c-3 2 -5 4 -6 4c-2 1 -21 14 -28 20c-47 40 -77 94 -87 154c-5 30 -5 54 0 85c14 79 65 148 137 184c13 7 16 9 25 12c34 13 73 18 107 15s61 -9 91 -23c18 -8 28 -15 46 -28c20 -16 39 -34 53 -53c11 -15 22 -36 28 -51
c13 -30 20 -60 21 -94c2 -47 -13 -100 -39 -141c-3 -6 -7 -11 -8 -12c-5 -7 -13 -17 -17 -22c-6 -6 -22 -22 -26 -25c-1 -1 -4 -4 -7 -6c-7 -5 -21 -15 -31 -21c-45 -26 -102 -38 -152 -33zM277 -45c1 1 -6 43 -7 44c0 0 -8 0 -16 -1s-21 -2 -29 -2s-16 -2 -16 -2l7 -7
c11 -11 22 -20 35 -29l7 -4h9c5 0 10 1 10 1zM217 -42l-4 4s-11 10 -19 18l-15 15l-17 1c-9 1 -21 1 -25 2s-9 1 -9 1s4 -4 10 -11c5 -5 7 -6 16 -11c16 -8 33 -13 50 -17c11 -2 13 -3 13 -2zM321 -31c4 5 8 10 10 13s3 5 4 6c3 4 17 27 16 28c0 0 -5 -2 -10 -3
c-13 -4 -29 -7 -40 -9l-10 -2s-1 -3 0 -6s3 -12 4 -21s3 -17 3 -17c0 -1 3 0 8 1l8 2zM361 -22c10 5 13 7 25 15c9 6 15 10 25 19c15 13 17 16 25 34c2 4 3 7 3 7s-3 -1 -7 -3c-7 -4 -24 -12 -30 -15c-2 -1 -8 -3 -13 -5l-9 -4l-7 -13c-7 -14 -12 -23 -19 -33
c-2 -4 -4 -7 -4 -7s6 2 11 5zM233 16c12 1 33 4 33 4s0 2 -6 38c-2 12 -4 25 -4 28c-1 6 0 6 -17 4c-31 -3 -66 -5 -85 -3h-8c-1 -1 10 -23 16 -33c5 -8 14 -22 22 -32l6 -8l16 1c9 0 22 1 27 1zM162 17c0 0 -2 4 -5 8c-10 15 -23 36 -29 51c-6 14 -5 14 -12 15
c-8 1 -25 4 -35 6c-4 1 -8 2 -9 2c-2 0 12 -34 21 -49c1 -2 2 -5 4 -8c2 -4 11 -18 12 -19s17 -3 28 -5c19 -3 25 -2 25 -1zM306 26c15 3 31 7 46 12c13 4 11 2 16 15s12 39 15 56c3 16 3 17 2 17c0 0 -6 -1 -13 -4c-13 -5 -31 -13 -40 -15c-3 -1 -11 -2 -17 -4
s-17 -4 -24 -5s-13 -3 -14 -3c-2 0 -3 -1 -1 -9c1 -4 1 -10 2 -14c2 -13 9 -48 9 -49s2 0 19 3zM72 45c-8 16 -15 34 -21 51l-4 11l-7 3c-4 1 -6 2 -6 2c-1 -1 9 -26 15 -36c8 -15 25 -38 27 -38c0 0 -2 3 -4 7zM409 61c15 8 22 11 34 19l8 6l3 10c3 13 7 36 8 49s2 29 1 29
c0 0 -3 -2 -5 -4c-11 -9 -31 -21 -44 -28c-8 -4 -7 -2 -9 -22c-2 -19 -7 -41 -13 -60l-2 -8c0 -1 6 2 19 9zM207 108c19 1 42 3 43 4c1 0 0 3 -1 11c-1 6 -2 14 -3 18c-4 23 -13 80 -13 80s-8 0 -16 -1c-22 -2 -64 -3 -82 -1c-7 1 -14 1 -15 1c-2 0 -1 -25 1 -41
c2 -20 8 -43 14 -63l2 -7l9 -1c12 -1 46 -1 61 0zM114 112c0 0 -1 4 -2 9c-8 28 -12 54 -13 84v18l-5 1c-9 2 -24 6 -31 8c-4 1 -8 1 -8 1c-2 -2 -2 -38 -1 -57c1 -13 4 -35 7 -46l2 -7l6 -2c8 -2 26 -7 36 -9c4 -1 9 -1 9 -1v1zM481 121c4 12 6 25 8 36c1 9 3 44 2 44
l-4 -4l-4 -4v-22c0 -24 -3 -49 -5 -57v-2s2 4 3 9zM283 116c33 6 63 16 94 30l11 4l-1 20c-1 27 -2 44 -8 66c-2 8 -7 23 -9 27v2l-13 -6c-31 -15 -62 -26 -96 -33l-8 -2s0 -4 1 -9c2 -12 7 -41 13 -79c2 -11 4 -20 4 -21s1 -1 2 -1s5 1 10 2zM40 133c0 0 -1 5 -2 9
c-2 10 -4 32 -5 47c0 11 0 24 2 45v7l-2 1c-6 2 -6 2 -8 -5c-5 -21 -6 -52 -3 -76c2 -15 3 -20 5 -22c1 -1 10 -7 12 -7c1 0 1 1 1 1zM419 168c13 8 22 15 35 26l8 6v8c0 8 -4 31 -7 41c-4 14 -10 30 -16 45c-6 14 -6 16 -7 16c0 0 -4 -2 -7 -5c-6 -6 -21 -17 -31 -24l-6 -4
s2 -6 4 -13c5 -17 6 -23 9 -37c3 -15 6 -36 7 -53c0 -9 0 -12 1 -12zM488 229c1 2 -4 23 -8 35c-3 10 -12 29 -16 36c-8 13 -16 27 -17 26l2 -4c15 -30 26 -64 31 -96c0 -2 1 -4 1 -4c0 -1 6 5 7 7zM212 240c9 1 17 2 17 2s-1 3 -1 6l-11 66s-4 1 -8 0c-20 -3 -31 -4 -52 -4
c-22 -1 -23 0 -23 -2c0 -1 -2 -7 -4 -13c-6 -21 -10 -53 -8 -54c1 -1 25 -3 37 -3c16 0 37 1 53 2zM101 247c0 1 1 6 1 10c1 10 5 30 8 43c1 6 3 10 3 10s-6 1 -13 2s-15 1 -19 2s-8 0 -8 0c0 -1 -4 -13 -7 -22c-4 -14 -9 -37 -8 -38s36 -10 40 -10c2 0 3 1 3 3zM262 247
c32 7 64 18 92 33l8 4l-3 7c-2 3 -3 7 -4 8c-5 11 -26 46 -29 48c0 0 -4 -1 -9 -3c-19 -9 -45 -18 -66 -23l-14 -3l1 -3c0 -2 1 -8 2 -13s2 -14 3 -19c2 -15 6 -34 6 -36c1 -2 1 -3 13 0zM40 270c1 4 3 11 4 16s2 8 2 8s-7 -11 -9 -17c-1 -2 -2 -6 -3 -8c-2 -5 -2 -5 0 -6
c4 -1 4 -1 6 7zM384 299c2 1 5 3 6 4c3 2 23 18 28 23l4 4l-5 9c-5 8 -16 23 -22 32c-5 7 -10 13 -11 13s-5 -3 -10 -7c-10 -7 -19 -13 -25 -16c-2 -1 -4 -3 -4 -3s2 -5 5 -9c9 -13 15 -25 22 -39c4 -8 7 -14 8 -14s2 2 4 3zM185 331c14 1 27 3 28 3s0 7 -2 19
c-2 10 -4 23 -5 28c-4 22 -5 36 -6 37l-10 -2l-9 -3l-4 -7c-9 -16 -23 -42 -29 -58c-3 -8 -7 -17 -7 -18s28 -1 44 1zM123 340c5 15 13 32 20 46c3 7 6 13 6 13s-1 0 -3 -1s-4 -3 -4 -3c-1 0 -16 -9 -21 -12c-8 -5 -16 -12 -23 -19c-7 -6 -7 -7 -10 -13c-2 -4 -4 -8 -5 -11
l-2 -6c1 -1 31 -4 36 -4h3zM244 340c14 3 25 7 39 12c15 5 30 12 30 13c-1 4 -33 39 -47 52l-9 8h-8c-8 0 -28 -2 -29 -3c0 0 0 -4 7 -46c6 -36 6 -38 7 -38zM341 379c8 5 26 17 26 18s-17 9 -22 11c-3 1 -7 2 -9 3c-10 4 -44 12 -45 11l8 -8c11 -12 25 -27 31 -36
c2 -2 3 -4 3 -4s3 2 8 5z" />
    <glyph glyph-name="drosophila" unicode="&#xf101;" 
d="M77 180c-1 0 -5 2 -8 3c-36 13 -57 34 -67 65c-3 20 -3 50 8 65c5 6 12 14 20 22c12 12 19 17 27 21c9 5 14 5 19 0c4 -4 7 -9 13 -25c5 -12 7 -16 9 -20c2 -3 4 -5 6 -5c1 0 1 0 1 1c-1 3 -2 11 -3 14c-1 6 -1 12 0 16c2 7 5 11 11 15c5 3 11 9 12 12c2 4 3 9 2 13
c-1 3 -3 6 -7 12c-6 8 -7 12 -7 17c0 3 0 5 1 5l2 2c1 2 3 5 6 7s6 3 12 5c14 4 19 5 23 8c1 1 2 3 3 4c3 4 5 5 8 7l3 1l8 -2c5 -1 9 -2 9 -2s2 1 3 2c5 5 6 5 8 5c4 -1 7 -2 8 -5c1 -1 0 -1 1 -1h5c9 0 17 -2 26 -9c3 -3 9 -9 12 -13c2 -3 3 -4 3 -7c0 -2 1 -3 1 -4v-2v1
c0 1 1 2 1 4s1 4 1 5s4 6 9 11l8 9l4 2c20 10 73 7 99 -5c7 -3 12 -7 14 -11c4 -8 6 -28 3 -37c-1 -3 -2 -5 -6 -9c-2 -2 -5 -3 -5 -4c-1 -2 0 -6 1 -9c1 -2 6 -7 13 -13c6 -5 8 -8 10 -12s2 -6 -1 -19c-2 -9 -3 -14 -3 -15h1h2s2 1 3 3s2 3 6 7c1 1 3 4 5 17
c4 20 6 26 9 33c3 6 9 9 16 9c4 0 7 -1 13 -5c2 -1 6 -4 9 -5c11 -6 20 -14 28 -26c8 -13 14 -27 16 -44c0 -3 1 -7 1 -14c0 -10 -1 -15 -3 -23c-6 -26 -27 -51 -52 -63c-10 -5 -17 -6 -26 -6c-5 0 -6 0 -9 1c-12 3 -21 11 -26 24c-2 6 -4 14 -5 25v3l-2 1c-2 1 -3 1 -5 1
c-1 0 -3 1 -4 1c-2 0 -1 0 -3 3s-3 8 -4 11c0 1 0 1 4 4c8 7 12 12 15 18c6 10 -3 12 -12 12c-5 0 -10 -1 -10 -1s-3 -3 -6 -7c-10 -14 -16 -20 -26 -21c-3 0 -3 0 -3 -1c0 -4 -6 -12 -10 -14h-2l2 -4c3 -8 3 -17 0 -23c-6 -12 -22 -21 -45 -24c-7 -1 -22 -1 -29 0
c-6 1 -13 3 -17 4s-5 2 -11 1c-3 -1 -6 -1 -8 -1c-3 0 -4 1 -6 2s-4 3 -6 4c-4 3 -13 11 -14 13s0 6 1 12c1 5 1 8 0 9l-3 3s-9 4 -17 9c-9 6 -15 11 -20 17c-3 4 -4 6 -6 11c-2 7 -3 7 -6 9c-1 1 -2 1 -4 1c-3 0 -6 0 -12 -3c-3 -1 -5 -3 -6 -3c-2 -1 -2 -1 0 -4
c2 -5 6 -7 15 -14c6 -4 9 -8 10 -11c1 -2 1 -2 1 -5s0 -3 -2 -8c-4 -9 -3 -9 -5 -9s-8 -2 -9 -2v-3c0 -1 1 -4 1 -6c0 -17 -16 -37 -35 -42c-4 -1 -11 -2 -15 -1v0z" />
    <glyph glyph-name="stats-dots" unicode="&#xf10d;" 
d="M64 0h448v-64h-512v512h64v-448zM144 32c-27 0 -48 21 -48 48s21 48 48 48h4l52 86c-5 8 -8 16 -8 26c0 27 21 48 48 48s48 -21 48 -48c0 -10 -3 -18 -8 -26l52 -86h4h3l85 149c-5 8 -8 17 -8 27c0 27 21 48 48 48s48 -21 48 -48s-21 -48 -48 -48h-3l-85 -149
c5 -8 8 -17 8 -27c0 -27 -21 -48 -48 -48s-48 21 -48 48c0 10 3 18 8 26l-52 86h-4h-4l-52 -86c5 -8 8 -16 8 -26c0 -27 -21 -48 -48 -48z" />
    <glyph glyph-name="analysis2" unicode="&#xf121;" 
d="M16 -63c-8 1 -14 7 -16 15v241v240c1 6 6 11 11 14l3 1h6h6l2 -1c5 -2 10 -7 11 -13v-230c0 -133 1 -228 1 -228s11 0 15 1c25 3 42 15 58 39c12 18 22 41 31 74c4 14 8 27 14 54c5 22 8 34 10 43c11 41 21 66 35 85c15 20 34 33 55 37c7 1 11 1 18 1c29 0 54 -14 73 -40
c12 -17 23 -39 32 -73c3 -10 7 -28 12 -51c8 -36 12 -51 18 -69c12 -37 25 -63 41 -79c7 -7 12 -10 20 -14c11 -5 20 -7 37 -8l3 -1v-9v-20v-10h-6c-3 0 -6 1 -7 1s-111 -1 -242 -1c-195 0 -239 1 -241 1v0zM420 -24l-3 3c-18 21 -33 50 -45 92c-4 14 -9 30 -16 60
c-10 41 -14 58 -19 74c-8 25 -17 42 -28 53c-10 10 -19 13 -33 13c-6 0 -10 -1 -15 -2c-20 -6 -36 -28 -49 -70c-5 -15 -8 -31 -16 -63c-11 -45 -16 -63 -22 -82c-11 -33 -24 -57 -40 -75l-3 -3h145h144z" />
    <glyph glyph-name="neuron" unicode="&#xf109;" 
d="M195 448v0l-5 -17l-1 -22l-6 -10l-2 -7l-5 -17v-3l2 -2v0c83 -92 130 -81 155 -36v0l12 16c5 10 9 24 6 42v1l-23 17l12 -5l7 -4l1 41l2 -26v-17l4 -3v-1c0 -1 1 -1 1 -2c2 -10 1 -19 -1 -28l12 18l5 48l-1 -29l-1 -21l-18 -25c-1 -2 -1 -4 -2 -6l24 9l17 30l5 33l-3 -27
v-6l-2 -6l-11 -21l14 8l11 32l-7 -28l-1 -5l-2 -2l-1 -1l-17 -11h-1l-28 -11l-1 -1c-6 -12 -12 -19 -11 -18v0c-20 -32 -54 -54 57 -94l18 -6l48 -16l7 6l5 20l11 4l4 11l-3 -13l-10 -3l-3 -18l12 18l16 1l12 -10l-13 8l-13 -1l-10 -17l15 -1l24 -12l-13 5l-11 4l-17 1v0v0
h-2l-7 -6l12 -11l34 -7h-13l-11 1l5 -10l8 -3l7 -15l-7 14l-9 3l-9 11l-6 1l-4 3l-1 -12l16 -15l8 -16l-9 15l-18 15l1 16l-8 8l-66 14c-79 -36 -89 -37 -18 -173l39 1l8 6l21 5l16 18l-13 -18l-2 -2l-7 -2l-14 -4l-4 -4l12 -3l5 -6l18 6l-9 -6l-9 -3l-3 4l-3 3l-15 2
l10 -15v-12l-1 -5v0v-5l-2 -11l1 31l-12 17l-33 -3l18 -29l15 -24l8 -12l6 2l20 8l-17 -10l-10 -6l-10 15l-12 21l-1 -10l10 -21l-2 -14l-3 -21l3 34l-12 21v10l-13 -21l-4 -12l-7 -27l8 41l16 27l-19 24c-20 45 -87 141 -154 38l-16 -35v0v-1l-15 -32v-1c0 -4 6 -15 13 -23
c7 -9 8 -13 14 -17v0h1l16 -8l-4 1l-8 3l-7 3c-1 1 -8 6 -14 14l-7 -19l-1 -3l16 -8l-8 3l-9 3h-1l-4 -6l-2 -4l-2 -4l8 17l8 24c-5 7 -10 14 -12 20l-17 -36l-6 -13l-3 -1l-16 -9l16 12l8 19l-16 -3l-3 1l-15 6l17 -4l19 5l23 50l22 50v12c0 62 -51 97 -92 127l-18 6
l-48 16l-7 -6l-5 -21l-11 -3l-4 -12l3 13l10 4l3 18l-12 -18l-16 -1l-12 10l13 -8l13 1l10 17h-15l-24 12l13 -5l11 -4h17v0v0h2l7 5l-12 12l-34 7l13 -1h11l-5 10l-8 2l-7 16l7 -14l9 -3l9 -12h6l4 -4l1 13l-16 15l-8 16l9 -15l18 -16l-1 -16l8 -8l64 -17c31 -7 45 7 56 21
c41 51 35 90 -1 119v0l-6 12l-1 -5l-13 3l-3 -3l-8 -12l9 18l12 -1l2 4l-7 11l-17 24l11 -13l7 -8l8 -9v0v0l5 -9l5 15l-14 42l6 -15l10 -21l1 4l6 10l1 19h-1l-5 2l-8 4l-3 7l4 -6l7 -2l7 -2zM155 204l3 -2l3 -3c-2 1 -4 4 -6 5zM223 -56v0v0zM159 -64v0v0z" />
    <glyph glyph-name="worm" unicode="&#xf10e;" horiz-adv-x="463" 
d="M270 146c32 -23 68 -44 110 -44c35 0 64 18 77 47c12 27 7 59 -13 81c-13 14 -33 22 -54 30c-11 4 -30 12 -35 17c-3 3 -8 9 -6 16c3 7 4 11 9 16c6 6 32 17 37 21c10 9 14 16 15 23c1 3 -4 6 -10 8c-7 3 -12 6 -37 2c-22 -8 -43 -14 -59 -39c-15 -23 -17 -50 -6 -75
c12 -26 41 -36 69 -47c10 -4 26 -10 30 -14c4 -5 4 -11 2 -14c-3 -8 -13 -9 -19 -9c-32 0 -63 24 -96 49c-5 3 -9 7 -14 10l-36 24c-21 12 -43 20 -67 20c-55 0 -76 -50 -94 -80c-5 -8 -12 -36 -15 -42c-5 -7 -11 -15 -24 -15c-17 0 -28 14 -33 7c-1 -5 -2 -10 12 -20
c15 -9 14 -7 25 -10c4 -1 17 0 21 1c29 6 31 35 46 60c16 28 45 36 62 36c20 0 43 -15 67 -33z" />
    <glyph glyph-name="pubmed" unicode="&#xf10b;" horiz-adv-x="465" 
d="M418 -32c-49 38 -108 68 -150 77c-45 9 -74 0 -105 -32c-28 -29 -36 -32 -36 -12c0 37 -54 78 -102 78h-25v174v173l23 -3c12 -2 26 -5 31 -7c7 -3 9 0 9 14c0 11 3 18 8 18c13 0 38 -23 51 -48c12 -23 13 -31 13 -171l-1 -147l4 117l3 116l20 21c31 32 57 43 103 43
c49 0 95 -15 155 -51l45 -27l1 -183c1 -101 -1 -182 -3 -182s-22 15 -44 32zM230 125c4 32 10 58 12 58s15 -25 27 -56c20 -49 24 -56 36 -56s16 7 36 54c12 30 24 57 25 58c5 5 8 -6 15 -59l7 -56h28c15 0 28 2 28 4s-7 52 -16 110l-15 105h-30h-30l-21 -55
c-12 -30 -24 -55 -26 -55s-13 25 -24 54l-20 53l-30 2c-28 2 -30 0 -33 -15c-6 -28 -32 -190 -32 -197c0 -4 11 -6 28 -6h28zM119 101c-5 9 -18 24 -28 33l-19 16l-3 128l-3 127l-1 -130l-1 -129l18 -12c10 -6 24 -21 30 -33s13 -20 14 -19s-2 10 -7 19z" />
    <glyph glyph-name="query" unicode="&#xf117;" 
d="M468 59c-7 2 -18 11 -34 29c-19 22 -25 27 -30 25c-3 -1 -17 -2 -31 -2c-32 0 -55 9 -76 33c-44 49 -29 128 32 158c15 8 22 8 45 8c22 0 30 -1 45 -8c22 -10 38 -26 50 -48c7 -14 8 -21 8 -44c0 -22 -1 -29 -7 -39l-7 -13l24 -27c25 -28 28 -37 22 -52
c-7 -17 -23 -25 -41 -20zM416 152c17 11 31 37 31 56c0 42 -29 72 -71 72c-24 0 -41 -8 -56 -25c-23 -27 -23 -62 0 -89c17 -19 32 -26 60 -25c19 1 24 3 36 11zM28 65c-38 20 -38 80 0 100c14 7 16 7 121 7h106l8 -15c20 -44 74 -75 124 -69c18 2 18 2 28 -10
c7 -8 9 -13 7 -15s-68 -3 -192 -4l-188 -1l-14 7v0zM83 102c12 11 3 32 -13 32c-10 0 -14 -3 -19 -12c-4 -7 -1 -18 7 -23c6 -4 19 -2 25 3zM42 198c-23 5 -39 23 -41 48c-2 23 4 39 19 51l12 10l134 1l134 1l-15 -15c-21 -21 -32 -47 -34 -76l-1 -23h-99
c-54 0 -103 2 -109 3zM82 238c15 10 6 34 -12 34c-19 0 -28 -18 -15 -31c9 -9 17 -10 27 -3zM29 340c-23 11 -33 33 -28 63c3 19 20 37 39 42c9 3 68 4 196 3l182 -1l13 -9c19 -13 23 -24 22 -52c-1 -21 -3 -24 -11 -33c-18 -19 -12 -19 -216 -19c-165 0 -188 1 -197 6z
M77 373c9 5 12 9 12 19s-12 20 -23 18c-4 -1 -10 -5 -13 -9c-9 -12 -1 -29 16 -32c1 0 4 2 8 4z" />
    <glyph glyph-name="osb" unicode="&#xf10a;" horiz-adv-x="500" 
d="M230 448v0c8 0 15 0 23 -1c4 0 7 -2 9 -5s2 -6 1 -9c-1 -6 -6 -11 -13 -12h-1h-1c-35 5 -94 -13 -128 -39c-4 -3 -7 -7 -10 -10c4 2 8 4 12 2c8 -3 14 -11 20 -19c15 -3 49 -6 80 -4c28 30 55 65 86 73v0c6 1 11 -1 13 -6c1 -2 1 -5 0 -8s-3 -5 -6 -7v0v0
c-22 -10 -40 -27 -54 -46c5 1 12 2 15 4c25 13 74 37 119 20c45 -15 83 -64 98 -127s8 -138 -42 -206v0c-2 -3 -6 -5 -9 -5s-6 1 -8 3c-4 4 -7 11 -4 18l1 1v0c23 27 40 88 37 130c-1 21 -8 36 -18 42c-5 3 -11 4 -20 2s-19 -8 -32 -18v0v0c-11 -9 -16 -20 -17 -34
c-1 -11 1 -22 3 -35c10 17 20 36 28 49c2 12 4 22 10 29c3 3 8 5 13 4s11 -5 18 -10c6 -5 10 -9 11 -14s0 -11 -4 -14c-7 -6 -17 -8 -27 -10c-11 -21 -28 -46 -41 -69c11 -37 24 -75 15 -104v0c-2 -6 -7 -9 -12 -8c-3 0 -5 2 -7 4s-3 6 -3 9v0v0c3 22 -1 43 -8 63
c0 -1 -1 -3 -1 -4c-3 -22 -4 -43 -9 -63s-14 -38 -32 -50c-36 -27 -95 -38 -155 -24s-119 55 -154 131c-2 3 -2 7 0 10s4 5 7 6c6 2 12 0 17 -6l1 -1v0c12 -33 55 -76 91 -92c18 -8 33 -10 42 -3c5 3 8 8 10 17s2 21 0 37v0v0c-2 14 -9 24 -20 32c-8 6 -20 9 -31 13
c10 -17 20 -35 25 -49c6 -4 14 -10 18 -19c2 -5 3 -10 0 -15s-9 -9 -18 -12v0h-1c-8 -2 -14 -2 -19 -1s-8 6 -9 10c-1 9 2 17 5 27c-4 17 -17 45 -33 69c-39 9 -81 16 -103 39v0c-4 4 -4 11 -1 15c2 2 4 4 7 4s6 0 9 -2v0h1c18 -14 38 -21 60 -24l-4 4c-18 13 -34 21 -48 34
s-26 29 -31 56v0v0c-6 42 12 99 52 145s100 82 177 83zM230 438v0c-74 -1 -131 -36 -169 -80s-56 -99 -50 -137c5 -25 14 -39 27 -50s30 -20 48 -33c6 -4 11 -10 17 -17l8 -8h-12c-29 2 -57 11 -81 29v0l-2 1l-1 -1s-1 -1 0 -2c18 -19 60 -27 100 -37h2l1 -2
c17 -25 32 -55 36 -75v-1v-1c-3 -11 -7 -20 -6 -24c0 -2 0 -2 2 -3s8 -1 15 1c7 3 11 6 12 8s1 3 0 6c-2 5 -10 12 -16 16l-1 1l-1 2c-5 15 -20 38 -31 61l-5 10l10 -3c17 -5 33 -11 46 -20s23 -22 25 -38v0c2 -17 2 -30 0 -41s-7 -18 -14 -23c-14 -10 -33 -7 -52 2
c-38 17 -81 59 -95 96c-2 3 -5 3 -7 2h-1s-1 -1 0 -2c33 -74 91 -112 148 -126s114 -2 146 23v0h1c16 11 23 27 28 45s5 39 8 61c1 7 3 15 6 22l4 10l5 -10c12 -26 18 -54 14 -83v1v-3l1 -1c1 0 2 1 2 2c7 24 -5 63 -16 101l-1 2l1 2c14 25 34 50 44 71l1 2h2
c10 2 20 6 24 9c2 2 2 2 2 4s-2 5 -8 9v0h-1c-6 5 -10 7 -13 8s-3 0 -4 -1c-2 -3 -6 -13 -8 -25v-1v0c-9 -16 -22 -42 -36 -62l-6 -9l-2 11c-4 18 -8 35 -6 51s8 31 21 41s26 16 36 19s20 2 27 -2c15 -8 20 -27 22 -50c3 -45 -12 -105 -37 -136c-1 -3 0 -6 1 -7l1 -1l1 1v0
v0c48 65 56 138 41 198s-53 108 -93 121v0v0c-40 15 -85 -7 -110 -20c-8 -4 -19 -6 -32 -8l-10 -2l5 9c16 26 38 48 67 61l-1 -1c2 1 2 2 2 2v1c0 1 -1 1 -2 1c-26 -7 -53 -41 -82 -72l-2 -1h-2c-33 -2 -69 -1 -86 3l-1 1l-1 1c-7 8 -15 17 -18 18c-2 1 -1 1 -3 -1
c-2 -1 -4 -6 -7 -13c-2 -8 -1 -12 0 -14s2 -4 5 -4c6 -1 16 3 23 6h1h1c16 -1 47 2 75 1l11 -1l-8 -8c-13 -13 -25 -23 -39 -30s-30 -9 -45 -3c-16 6 -27 13 -35 20s-13 16 -13 25c-1 17 12 33 30 47c36 27 94 46 134 41c3 1 6 3 6 5v1s-1 1 -2 1v0c-8 1 -15 0 -22 0z
M107 368v0c-8 -9 -13 -17 -13 -25c0 -6 3 -12 9 -18s17 -12 32 -18v0c13 -5 25 -3 37 3c9 4 18 12 27 20c-22 0 -46 -2 -61 -1c-7 -3 -16 -6 -26 -5c-5 1 -10 3 -13 8s-2 13 0 22v0v0c2 7 5 11 8 14zM237 337h3c11 -2 21 -7 27 -14c4 -5 5 -10 5 -17s-1 -14 -2 -22
c-3 -15 -8 -31 -11 -40v0c-6 -15 -19 -24 -34 -29l-6 -2l-1 6c-6 38 0 79 17 115zM242 325c-13 -31 -18 -65 -14 -98c10 5 18 11 22 20c3 8 7 24 10 39c1 7 2 14 2 20s-1 10 -2 11c-3 4 -11 6 -18 8zM220 209v0h7c13 0 25 -3 37 -7l6 -1l-3 -6c-7 -11 -14 -21 -23 -29l-4 -4
l-3 5c-7 12 -12 24 -15 36zM274 199l6 -2c36 -15 68 -43 89 -76l2 -3l-3 -3c-6 -6 -13 -10 -21 -11c-6 -1 -11 1 -17 4s-12 8 -18 13c-12 10 -24 22 -30 29v0c-10 12 -12 27 -9 43zM234 198c2 -6 5 -13 8 -19c4 5 8 9 12 15c-6 2 -13 3 -20 4zM282 184c-1 -11 1 -21 7 -28
s17 -19 29 -28c6 -5 11 -8 16 -11s9 -4 11 -4c4 1 9 4 13 7c-19 27 -46 50 -76 64zM197 178v0c13 0 25 -7 35 -15l5 -4l-5 -3c-31 -24 -70 -39 -109 -42l-4 -1l-1 4c-2 9 -3 17 0 25c2 6 6 9 12 13s13 7 20 10c15 6 30 10 39 12v0c3 1 5 1 8 1zM197 168c-2 0 -4 -1 -6 -1
c-8 -2 -24 -5 -38 -11c-7 -3 -13 -6 -18 -9s-7 -6 -8 -8c-1 -4 -1 -10 0 -15c33 3 66 17 93 36c-7 5 -16 8 -23 8z" />
    <glyph glyph-name="telescope_tbo_full" unicode="&#xf11d;" 
d="M49 213l88 44l34 -71l-88 -44zM7 222l19 10l58 -119l-18 -10c-2 -1 -4 -1 -6 -1c-5 0 -9 3 -11 7l-48 96c-2 3 -1 7 0 10s3 5 6 7zM511 327l-57 114c-2 4 -6 7 -11 7c-2 0 -4 0 -6 -1l-158 -79c-1 -1 -3 -2 -4 -3l66 -135c2 0 3 1 5 2l159 78c6 3 9 11 6 17zM139 283
l131 66l55 -113l-23 -11c2 -5 3 -10 3 -15c0 -19 -11 -36 -26 -44l44 -136c1 -3 0 -7 -3 -8c-1 0 -1 -1 -2 -1c-2 0 -5 2 -6 4l-45 136c-4 -1 -8 -1 -12 -1s-8 0 -12 1l-44 -136c-1 -2 -4 -4 -6 -4c-1 0 -1 1 -2 1c-3 1 -5 5 -4 8l45 136c-7 4 -13 8 -17 15l-21 -10h-2
l-54 111s0 1 1 1z" />
    <glyph glyph-name="3dshape" unicode="&#xf112;" horiz-adv-x="456" 
d="M200 -54c-55 29 -179 103 -189 112s-11 24 -11 135s1 125 11 134c24 22 202 121 217 121s193 -99 217 -121c10 -9 11 -23 11 -134s-1 -126 -11 -135c-14 -12 -193 -117 -209 -122c-6 -2 -22 3 -36 10zM288 37c30 37 54 68 54 70s-51 3 -114 3s-114 -1 -114 -3
c0 -7 109 -136 114 -136c3 0 30 29 60 66zM132 53c-22 28 -43 51 -46 51s-15 -7 -25 -15l-18 -14l62 -36c34 -20 64 -36 65 -36s-16 22 -38 50zM377 53l37 21l-18 15c-10 8 -22 15 -25 15s-18 -15 -32 -33s-32 -41 -41 -52l-16 -20l29 17c16 9 45 25 66 37zM59 112l18 14
l-20 52c-11 29 -22 53 -23 53s-2 -30 -2 -67s1 -66 4 -66s13 6 23 14zM425 164c0 37 -2 67 -3 67s-11 -24 -22 -53l-20 -52l17 -14c10 -8 20 -14 23 -14s5 29 5 66zM348 135c-5 14 -117 203 -120 203c-4 0 -120 -199 -120 -205c0 -2 54 -4 121 -4c69 0 120 3 119 6zM152 249
c29 50 50 92 49 93c-6 6 -163 -43 -163 -51c0 -4 10 -35 22 -68s24 -63 26 -68c4 -12 7 -9 66 94zM395 220c26 71 27 78 12 83c-60 18 -150 41 -152 39c-1 -1 23 -45 53 -98s58 -94 60 -91s14 33 27 67zM197 364c12 3 15 8 17 24c2 20 2 20 -12 13
c-32 -17 -113 -64 -113 -66c0 -1 21 4 46 11s53 16 62 18zM368 335c0 3 -123 73 -129 73c-8 0 -5 -31 3 -36c4 -3 34 -13 65 -22s58 -17 59 -17s2 0 2 2z" />
    <glyph glyph-name="make-group" unicode="&#xf107;" 
d="M160 384c18 0 32 -14 32 -32v-64c0 -18 -14 -32 -32 -32h-64c-18 0 -32 14 -32 32v64c0 18 14 32 32 32h64zM352 256c-18 0 -32 14 -32 32v64c0 18 14 32 32 32h64c18 0 32 -14 32 -32v-64c0 -18 -14 -32 -32 -32h-64zM352 352v-64h64v64h-64zM160 128
c18 0 32 -14 32 -32v-64c0 -18 -14 -32 -32 -32h-64c-18 0 -32 14 -32 32v64c0 18 14 32 32 32h64zM160 32v64h-64v-64h64zM416 128c18 0 32 -14 32 -32v-64c0 -18 -14 -32 -32 -32h-64c-18 0 -32 14 -32 32v64c0 18 14 32 32 32h64zM448 192c35 0 64 -29 64 -64v-128
c0 -35 -29 -64 -64 -64h-128c-35 0 -64 29 -64 64v32c0 43 -17 83 -47 113s-70 47 -113 47h-32c-35 0 -64 29 -64 64v128c0 35 29 64 64 64h128c35 0 64 -29 64 -64v-32c0 -43 17 -83 47 -113s70 -47 113 -47h32zM480 -0v128c0 8 -3 17 -9 23s-15 9 -23 9h-32
c-106 0 -192 86 -192 192v32c0 8 -3 17 -9 23s-15 9 -23 9h-128c-8 0 -17 -3 -23 -9s-9 -15 -9 -23v-128c0 -8 3 -17 9 -23s15 -9 23 -9h32c106 0 192 -86 192 -192v-32c0 -8 3 -17 9 -23s15 -9 23 -9h128c8 0 17 3 23 9s9 15 9 23z" />
    <glyph glyph-name="geneontology" unicode="&#xf103;" 
d="M187 -54c-55 15 -113 57 -145 106c-67 103 -53 237 34 323c63 50 117 72 183 73c43 0 74 -7 113 -26c42 -20 92 -71 112 -113c59 -121 22 -258 -88 -330c-45 -29 -81 -39 -141 -39c-27 0 -57 3 -68 6zM310 -36c40 8 77 30 112 65c49 49 69 97 69 165s-21 116 -70 165
c-50 50 -97 70 -167 70c-118 0 -217 -88 -232 -207c-9 -71 16 -143 68 -195c58 -58 136 -81 220 -63zM168 4c-63 20 -82 101 -34 145c10 9 22 17 27 19c7 2 8 6 6 12c-1 5 -2 12 -2 17c0 6 -3 8 -9 10c-17 4 -42 26 -51 44c-11 23 -12 56 -1 77c27 53 92 65 137 25
c12 -10 19 -14 23 -12c18 10 24 9 30 -6c8 -20 8 -21 -10 -28c-15 -6 -16 -8 -16 -21c0 -24 -17 -54 -40 -69c-18 -11 -19 -14 -20 -27c-1 -21 2 -15 23 -26c70 -36 62 -137 -12 -159c-23 -7 -31 -7 -51 -1zM221 58c26 26 8 68 -28 68c-31 0 -50 -31 -35 -59
c13 -23 45 -27 63 -9zM204 256c12 8 21 28 18 42c-1 6 -8 16 -14 21c-41 34 -92 -24 -53 -60c12 -11 35 -13 49 -3zM335 110c-30 16 -44 40 -45 75c-1 25 12 17 -14 34c-7 5 -14 8 -15 9c-2 2 14 34 17 34c1 0 9 -4 18 -8l16 -9l13 10c36 27 87 20 117 -16
c35 -42 21 -106 -28 -130c-28 -14 -51 -13 -79 1zM404 158c28 28 2 74 -38 66c-18 -3 -30 -19 -30 -39c0 -35 43 -52 68 -27z" />
    <glyph glyph-name="showplane" unicode="&#xf11a;" 
d="M346 52c-89 30 -163 54 -164 54s-15 -8 -30 -19l-28 -20v-31c0 -29 0 -32 -2 -31c-1 1 -18 6 -37 12s-36 11 -39 12l-5 1l12 21c7 11 20 33 28 47s16 27 18 30l3 5l-51 17l-51 17v140v141l47 -15c48 -16 242 -80 245 -81c1 0 10 5 21 13l20 14v31l1 32l40 -13
c22 -7 40 -13 41 -13s-10 -20 -24 -44c-19 -32 -26 -44 -24 -45c1 0 34 -11 73 -24l72 -24v-140c0 -112 0 -141 -2 -141c-1 0 -75 24 -164 54zM482 149l-1 108l-64 21c-35 12 -66 22 -67 22s-5 -6 -9 -13l-8 -12v15v16l-15 5l-16 5l-57 -39c-31 -22 -57 -39 -57 -39
s-1 9 -1 20l1 20l6 4c3 3 19 14 36 26s30 21 30 21c-1 1 -226 75 -228 75s-1 -19 -1 -108v-107l43 -15c38 -12 44 -13 45 -11c5 8 5 7 5 1v-6l24 -8l25 -8l24 17c13 9 35 24 48 33s25 17 25 17c1 0 0 -42 -1 -42c0 0 -13 -8 -28 -19c-21 -15 -27 -19 -25 -20
c2 0 62 -20 133 -44s130 -43 131 -43c2 0 2 22 2 108zM135 116l6 4l-5 2c-13 4 -12 4 -12 -5c0 -7 1 -8 2 -7s5 4 9 6z" />
    <glyph glyph-name="inputs" unicode="&#xf105;" horiz-adv-x="360" 
d="M0 29c0 0 53 75 80 150c11 13 192 236 192 236c4 7 20 6 37 -3s56 -48 50 -56l-198 -253c-51 -16 -113 -60 -147 -85c-7 8 -9 8 -14 11zM282 382l-8 13c-51 -62 -97 -118 -147 -181c-12 -15 -25 -27 -33 -44c-8 -28 -44 -80 -55 -106c16 25 50 78 71 103
c46 52 87 110 131 164zM345 356c5 6 -6 23 -23 37s-35 20 -40 14s5 -22 22 -36s36 -21 41 -15z" />
    <glyph glyph-name="pipette" unicode="&#xf110;" horiz-adv-x="309" 
d="M0 -62c0 10 71 158 96 201c22 37 27 49 24 54c-2 3 -3 10 -3 14s21 45 48 91l49 84l-10 8l-9 8l6 10c7 12 7 12 18 5c8 -5 9 -5 13 1c4 5 6 5 9 2c2 -2 6 -4 8 -4c5 0 19 23 17 27c-1 1 0 4 2 7c2 4 7 3 22 -6c19 -11 24 -18 14 -22c-3 -1 -8 -8 -11 -15
c-6 -12 -6 -12 1 -18l8 -6l-43 -73c-23 -41 -50 -88 -60 -104c-14 -23 -20 -30 -27 -32c-5 -1 -11 -2 -13 -3s-16 -23 -32 -50s-47 -77 -71 -110c-45 -63 -56 -76 -56 -69zM220 291c14 24 25 45 26 46c1 2 -19 15 -21 13c0 -1 -12 -22 -26 -46l-25 -44l8 -6
c5 -4 10 -7 11 -7s13 20 27 44z" />
    <glyph glyph-name="3dhide" unicode="&#xf114;" 
d="M73 -55c-6 5 -11 9 -11 10c1 2 322 441 323 441s25 -17 25 -18c-1 -2 -324 -441 -325 -441c0 0 -6 3 -12 8zM271 -35c-19 5 -34 21 -38 40c-2 8 -1 23 2 30c3 8 10 17 16 22c3 2 6 5 7 5s0 8 -4 21l-7 19h-11l-10 -1l3 4c2 2 5 7 8 11s6 7 7 7c4 0 14 6 19 10
c10 9 16 22 16 34c0 5 0 7 7 16l8 11l2 -7c2 -6 1 -6 6 -6c6 0 100 12 103 13c2 0 3 3 4 7c7 21 28 35 51 35c22 0 39 -11 48 -31c3 -7 4 -8 4 -21c0 -14 -1 -14 -5 -23c-14 -28 -45 -38 -72 -24c-13 7 -24 21 -27 34c-1 3 -1 4 -4 3c-2 0 -23 -3 -47 -6
c-49 -6 -59 -7 -59 -8c0 0 0 -3 -1 -7c-3 -14 -13 -29 -25 -38c-6 -4 -6 -6 -5 -8c1 -1 3 -10 6 -20l6 -18h7c4 0 10 -1 14 -2c32 -10 47 -46 32 -76c-3 -6 -14 -16 -20 -20c-12 -7 -28 -10 -41 -6zM300 -13c13 6 19 17 18 31c-2 33 -44 43 -61 15c-5 -8 -7 -22 -3 -30
c8 -18 28 -25 46 -16zM475 154c20 10 24 38 7 54c-7 6 -13 9 -23 9c-18 0 -32 -15 -32 -33c0 -14 9 -29 23 -33c6 -2 18 0 25 3zM47 42c-13 1 -24 6 -34 17c-28 31 -10 81 31 88c20 3 42 -6 54 -23l2 -4l13 4c7 2 23 7 35 11s23 8 23 8s-1 2 -2 5c-3 6 -3 26 -1 34
c3 12 9 23 18 32c5 5 11 10 14 12s7 3 7 3s-3 12 -12 39c-6 18 -18 58 -21 67l-2 6h-5c-24 0 -45 15 -53 38c-2 7 -2 23 0 30c10 30 40 45 68 36c37 -12 49 -59 21 -87c-4 -4 -7 -7 -9 -8l-3 -2l9 -30c15 -47 23 -75 25 -79c1 -4 2 -4 10 -5c4 0 9 -2 9 -2s-2 -4 -6 -9
c-6 -8 -8 -9 -13 -10c-8 -1 -17 -6 -24 -12c-11 -10 -15 -19 -14 -36v-11l-13 -18l-13 -18l-17 -5c-10 -3 -22 -7 -27 -9l-10 -3l-1 -8c-1 -22 -15 -42 -35 -49c-6 -2 -16 -3 -24 -2zM68 65c14 7 22 23 17 39c-3 9 -12 19 -21 22c-16 5 -32 -1 -40 -15c-4 -8 -5 -15 -3 -23
c4 -22 27 -33 47 -23zM176 364c9 3 18 11 21 20c4 13 0 29 -11 37c-22 17 -53 2 -53 -26c0 -23 20 -38 43 -31z" />
    <glyph glyph-name="fullgear" unicode="&#xf11f;" 
d="M211 -60c-3 3 -5 11 -8 30c-5 38 -5 36 -21 43l-14 6l-23 -18c-24 -18 -31 -22 -37 -19c-8 5 -43 38 -52 50c-12 16 -12 20 4 40c6 8 14 18 17 22l6 8l-6 15c-3 8 -7 15 -9 16s-11 4 -22 5c-37 5 -42 6 -44 12c-1 3 -2 23 -2 44c0 47 0 47 20 50c16 3 43 6 48 7
c2 0 6 7 9 15l6 15l-5 8c-3 4 -11 15 -19 25c-17 21 -17 23 -1 41c15 17 44 45 50 47c8 3 12 0 32 -16c27 -22 27 -22 35 -18c4 2 10 4 14 6c7 3 9 5 10 14c3 26 7 51 10 55c3 5 5 5 47 5c38 0 43 -1 46 -4c2 -2 5 -14 7 -28c6 -42 5 -38 19 -44c7 -3 14 -5 16 -5
s11 7 22 15c27 20 30 22 36 21c6 -2 42 -36 54 -51c13 -17 14 -16 -17 -57l-10 -13l4 -8c2 -4 4 -11 6 -15c3 -7 4 -8 15 -10c31 -6 38 -7 43 -7c3 0 7 -1 10 -3c5 -3 5 -5 5 -47c0 -52 1 -49 -27 -53c-6 -1 -17 -3 -26 -4l-16 -2l-6 -12c-3 -6 -6 -14 -6 -16
c0 -4 15 -26 29 -42c9 -10 9 -15 1 -26c-10 -14 -52 -53 -58 -55c-7 -2 -13 1 -26 12c-6 5 -15 12 -21 17l-11 8l-14 -6c-7 -3 -14 -7 -15 -8s-3 -11 -4 -22c-3 -28 -6 -39 -11 -43c-4 -3 -9 -4 -45 -4c-37 0 -42 1 -45 4z" />
    <glyph glyph-name="addplot" unicode="&#xf111;" 
d="M0 65v192l1 190l16 1h16l1 -175v-176l239 -1l239 -1v-16v-16h-255c-203 0 -256 0 -257 2zM65 128c-1 1 -1 33 -1 72v72l23 30c13 17 38 49 56 72l33 42l4 -4c2 -2 35 -34 72 -71c58 -58 68 -68 70 -66c2 1 24 18 49 39s45 38 46 37s8 -27 14 -49c2 -6 19 -65 21 -73
s19 -67 21 -73c1 -3 2 -10 4 -16s3 -11 3 -12c-1 -2 -413 -2 -415 0zM315 332v27h-27h-27v8v7h27h27v27v27h8h8v-27v-27h27h27v-7v-8h-27h-27v-27v-27h-8h-8v27z" />
    <glyph glyph-name="activeExp" unicode="&#xf113;" 
d="M106 35c-12 3 -19 8 -23 18c-3 8 -3 14 1 23c2 4 29 49 61 99s60 95 63 100l5 8v44c0 24 0 45 -1 46c-1 2 -3 3 -11 3c-9 0 -11 0 -16 5c-7 7 -7 15 0 22l6 5h67c60 0 67 0 71 -2c9 -6 11 -17 3 -25c-5 -5 -6 -5 -16 -5h-10v-48v-47l17 -27c9 -15 37 -58 61 -96
s46 -73 48 -77c11 -22 2 -41 -19 -46c-8 -2 -298 -2 -307 0zM342 161c0 1 -15 26 -34 56l-35 54v52v53h-14h-15v-53v-53l-34 -53c-18 -29 -34 -54 -34 -55c-1 -2 14 -2 83 -2c50 0 83 0 83 1zM25 192c0 128 103 231 231 231s231 -103 231 -231s-103 -231 -231 -231
s-231 103 -231 231zM0 192c0 -141 115 -256 256 -256s256 115 256 256s-115 256 -256 256s-256 -115 -256 -256z" />
    <glyph glyph-name="stack" unicode="&#xf10f;" horiz-adv-x="482" 
d="M119 0c-66 35 -119 65 -119 66s96 52 98 52c1 0 33 -17 72 -38l71 -38l71 38c39 21 71 38 72 38c2 0 98 -51 98 -52c0 -2 -238 -130 -241 -130c-1 0 -56 29 -122 64zM122 129c-65 35 -119 65 -121 66c-3 1 7 6 43 26l45 24l76 -40c42 -22 75 -41 76 -41s35 19 77 41
l76 40l43 -23c24 -13 44 -23 45 -24s-48 -29 -119 -67c-67 -36 -122 -65 -122 -65s-54 28 -119 63zM119 253c-66 35 -119 64 -119 65s238 130 241 130s241 -129 241 -130c0 -2 -237 -129 -241 -129c-2 0 -56 29 -122 64z" />
    <glyph glyph-name="fly" unicode="&#xf102;" horiz-adv-x="510" 
d="M6 217c3 7 12 18 20 26l15 15l-6 12c-7 16 -8 51 -2 67c3 7 10 16 17 21c11 8 16 9 47 9c32 0 39 -1 66 -14c17 -8 32 -15 36 -17s2 1 -5 9c-6 7 -31 24 -55 38c-43 25 -65 46 -65 60c0 9 4 6 18 -11c9 -11 25 -22 48 -35c46 -26 71 -47 89 -74c17 -26 32 -39 35 -29
c3 13 38 46 65 64c16 10 40 28 55 40c25 21 34 25 30 14c-2 -7 -46 -43 -78 -64c-34 -22 -53 -40 -60 -55c-7 -16 -5 -20 15 -26l17 -5l16 16c25 25 53 40 73 40c14 0 21 -3 41 -17c22 -16 25 -17 47 -17c26 0 33 -7 13 -11c-22 -5 -43 0 -66 17c-34 24 -52 21 -98 -18
c-11 -9 -10 -11 0 -24c5 -6 8 -14 8 -18s2 -8 4 -9s3 1 3 4s2 13 6 21c11 24 33 31 54 16c12 -8 13 -12 22 -47c8 -30 8 -33 3 -40c-2 -3 -4 -14 -5 -25c-5 -53 -63 -64 -77 -15c-5 17 -10 22 -10 9c0 -4 -3 -12 -7 -18c-9 -13 -8 -14 25 -37c14 -10 28 -17 34 -17
s22 7 37 16c28 17 45 20 65 12c10 -4 14 -15 4 -12c-3 1 -13 2 -22 3c-15 2 -20 1 -39 -12c-39 -26 -54 -24 -103 13l-26 20l-17 -5c-14 -4 -16 -7 -17 -15c-2 -21 24 -46 64 -59c12 -4 29 -12 37 -18c23 -16 52 -57 40 -57c-1 0 -11 10 -21 22c-21 25 -33 32 -66 44
c-31 11 -54 30 -61 49c-3 8 -7 15 -8 15s-17 -16 -35 -36c-28 -30 -38 -38 -68 -55c-20 -11 -49 -30 -64 -42c-19 -15 -29 -21 -31 -18c-5 6 35 38 78 63c42 24 42 24 40 27c-1 1 -14 -3 -29 -8c-20 -7 -34 -10 -58 -10c-34 0 -46 4 -58 24c-9 14 -9 50 -1 72l6 15l-16 16
c-9 9 -17 22 -20 28c-7 15 -7 38 1 53zM44 283c12 -29 38 -43 102 -54l36 -6l10 10c13 13 31 23 49 29c8 2 14 6 14 8c0 7 -54 46 -86 61c-30 15 -37 16 -69 17c-31 1 -36 1 -46 -6c-18 -14 -21 -32 -10 -59zM42 49c15 -34 75 -32 140 3c44 24 81 56 65 56
c-9 0 -43 20 -56 32l-14 13l-37 -7c-60 -11 -86 -26 -97 -55c-8 -20 -7 -27 -1 -42z" />
    <glyph glyph-name="doi" unicode="&#xf100;" 
d="M256 448c42 0 52 -1 80 -11c84 -29 142 -90 168 -176c12 -38 10 -107 -4 -149c-25 -77 -89 -140 -166 -165c-38 -12 -104 -14 -142 -4c-34 9 -55 20 -88 43c-93 66 -129 194 -86 301c29 73 83 124 159 150c28 10 37 11 79 11zM423 352c-17 0 -29 -11 -29 -28
c0 -26 28 -38 47 -20c18 17 7 47 -18 48zM147 351v-50v-50l-13 8c-18 11 -51 11 -72 -1c-18 -10 -33 -34 -37 -57c-5 -32 13 -72 39 -84c18 -8 52 -5 67 6c14 11 16 10 16 0c0 -7 3 -8 24 -8h24v118v118h-24h-24zM296 271c-22 1 -46 -8 -64 -26c-51 -51 -18 -131 57 -137
c3 0 14 2 25 4c37 8 64 41 64 78c0 49 -40 80 -82 81zM398 267v-76v-76h24h24v76v76h-24h-24zM111 229c17 0 34 -11 37 -29c3 -15 -5 -36 -15 -42c-14 -9 -24 -11 -37 -5c-16 7 -21 17 -21 38c0 11 2 19 9 27s17 11 27 11zM292 228c20 1 38 -18 38 -39
c0 -27 -33 -47 -57 -33c-4 2 -10 9 -13 16c-13 26 4 55 32 56z" />
    <glyph glyph-name="shapehide" unicode="&#xf118;" 
d="M81 11c-6 5 -10 9 -10 10c0 2 312 427 313 427s23 -16 23 -17c-1 -2 -313 -428 -314 -428c0 0 -6 3 -12 8zM404 68c-8 1 -14 3 -17 6c-10 9 -16 14 -15 15c0 0 0 1 -1 1c-2 0 -3 4 -4 34c-1 27 -1 30 -3 32c-1 1 -3 3 -3 7c-1 9 -2 11 -8 11c-3 0 -5 0 -5 -1s-2 -2 -3 -2
s-1 -1 -1 -1s0 -11 1 -23c1 -17 1 -23 0 -28c-1 -4 -2 -7 -2 -7l-2 -4c-3 -9 -11 -12 -30 -12c-13 0 -28 2 -30 5c0 1 -2 2 -4 3c-4 2 -7 3 -8 5c-1 1 -4 2 -7 3s-7 3 -9 5c-10 9 -29 28 -30 31s-1 5 28 44l29 40l10 2c8 2 15 2 27 2c18 0 26 -2 31 -7c2 -2 4 -3 5 -3
s4 -1 4 -2s1 -1 2 -1s2 -2 4 -3s3 -2 4 -2s4 -2 7 -5s6 -5 7 -5c3 0 7 -4 7 -7c0 -2 1 -3 3 -4c4 -2 11 -9 10 -10c0 -1 0 -1 1 -1s2 -2 2 -4s2 -4 3 -4c3 -1 2 -5 0 -7s-2 -4 1 -4c2 0 2 -2 4 -22c1 -9 2 -17 3 -17c1 -1 1 -4 0 -5c-2 -1 -1 -5 1 -7c1 -1 2 -1 2 -1
s4 2 9 4c6 2 10 3 11 5c1 1 3 3 4 3s3 1 5 3c6 6 7 8 13 11c3 1 5 2 5 3s0 2 1 3s1 1 0 1s-2 2 -2 3s-2 3 -5 4s-7 4 -10 7s-7 5 -7 5l-2 4s-4 4 -5 5c-2 1 -7 6 -6 6c0 0 -2 3 -5 6s-6 7 -7 10s-2 5 -3 6c-2 2 -1 20 1 22l4 4c2 4 13 5 25 3c6 -1 11 -1 11 -2s3 -2 5 -3
c5 -1 10 -5 10 -8c0 -1 1 -2 2 -2s1 -1 1 -2s0 -1 1 -1s2 -3 3 -5s2 -5 3 -5s0 -1 0 -2s2 -3 3 -5s2 -4 2 -5s1 -3 2 -4s3 -3 4 -6s2 -5 3 -5s2 -3 3 -6s2 -6 3 -7s2 -3 2 -3s-1 -1 0 -1s2 0 2 -1s2 -4 4 -7l4 -5v-11c0 -8 -1 -12 -2 -12s-1 -1 -1 -2s1 -2 0 -2s-2 -2 -2 -4
s-2 -5 -3 -6s-1 -3 -1 -4s-1 -3 -2 -3s-2 -1 -2 -2s-1 -3 -3 -5s-4 -5 -5 -6s-2 -2 -3 -2s-2 -1 -2 -2s-2 -2 -4 -2c-6 -1 -13 -6 -13 -7s-1 -1 -2 -1s-3 -2 -4 -3c-4 -4 -17 -6 -36 -7c-9 0 -19 1 -23 1zM179 93c1 1 5 8 11 16l11 15v-6c0 -3 0 -6 -1 -6s-2 -2 -3 -4
s-3 -4 -4 -4s-1 0 -1 -1c1 -1 -6 -7 -8 -7c-1 0 -2 -1 -2 -2s-2 -2 -3 -2s-1 0 0 1zM114 113c-1 1 -2 2 -2 3s1 1 0 1c-2 0 -3 8 -4 20c0 6 -1 11 -2 11s-1 0 -1 2s0 3 1 3s1 1 1 2c0 3 4 13 6 14c1 1 1 2 0 2s-1 0 -1 1c0 4 -6 11 -12 13c-3 1 -7 3 -7 4c-1 2 -9 3 -11 1
s-2 -6 0 -7c1 0 1 -4 1 -8s0 -8 1 -8s1 -1 1 -3s0 -4 -1 -4s-1 -1 -1 -2c0 -2 -4 -9 -6 -10c-1 -1 -3 -2 -4 -3s-4 -4 -8 -5c-8 -3 -22 -2 -29 1c-4 2 -11 8 -11 10c0 1 -6 6 -7 6c0 0 -1 0 -1 1s-1 2 -3 3s-2 2 -2 4c0 1 -2 4 -5 7s-5 6 -5 8c0 1 0 5 -1 9c-1 5 -2 8 0 15
c1 5 3 10 4 10c2 1 5 7 5 10c0 1 1 2 1 2s2 2 4 3s5 3 8 4s5 3 6 4c1 2 4 3 12 3c7 0 10 0 11 -1s4 -3 7 -5s5 -3 5 -3s3 -3 6 -4s6 -4 6 -5s2 -2 4 -3s3 -1 3 -2s2 -2 5 -3s4 -3 4 -4s1 -2 3 -3s3 -3 3 -6s0 -4 2 -3c1 0 4 1 7 2c4 1 6 2 10 7c2 3 4 5 3 5s-1 1 -1 4v4
s-2 2 -2 3s-2 3 -4 4c-4 2 -12 9 -12 10s0 3 -2 5s-4 5 -5 7c-1 4 -1 5 1 9c1 3 3 5 3 5s2 2 2 5s1 7 3 9l2 2c-1 0 4 5 8 9c1 2 5 4 7 5s5 2 5 3s0 2 1 2s1 1 0 1s-1 2 -1 3s-1 4 -3 6s-3 4 -3 4c1 1 -4 3 -7 3c-1 0 -3 -1 -4 -3s-2 -4 -3 -5s-3 -4 -4 -6s-2 -3 -2 -3
s-1 -1 -1 -2s-1 -4 -2 -5s-3 -2 -3 -3s0 -2 -2 -3s-3 -3 -3 -4c0 -2 -8 -5 -11 -5c-1 0 -2 0 -2 -1c0 -2 -10 -5 -18 -5s-16 3 -16 5c0 1 0 1 -1 1c-3 0 -11 3 -11 5c0 1 -1 2 -2 2s-2 2 -2 4s-2 4 -3 4s-1 2 -1 4s-1 4 -2 4s-1 1 -1 2s1 1 1 1c1 0 5 13 5 15c0 1 8 8 9 9
c3 2 10 6 10 7s1 1 2 1s4 0 5 1s5 3 7 3s4 1 4 2s5 2 10 2c11 1 13 1 16 7c3 5 7 9 10 9c2 0 2 0 2 2c0 1 0 3 -1 3c-3 0 0 3 5 8c1 1 2 3 4 5s4 3 5 3c3 0 10 2 10 3c0 0 1 1 2 1s2 0 2 -1s1 -1 2 -1c2 0 15 -5 16 -6s8 -4 10 -5c1 0 2 -1 2 -2s0 -1 1 -1s3 -1 4 -2
s3 -2 3 -2c1 0 9 -9 13 -13c1 -1 1 -3 1 -4s0 -2 1 -2s2 -2 2 -3s1 -3 3 -5c3 -3 5 -8 6 -19c0 -4 1 -8 2 -8s1 0 1 -1s0 -2 -1 -2c-2 0 -2 -3 0 -4c1 0 2 0 3 1s3 2 6 2c7 0 20 4 22 6c0 1 4 1 8 2s9 2 11 2c5 1 18 -1 20 -3c1 -1 -2 -7 -26 -39l-28 -38h-5c-3 0 -5 1 -6 2
c-1 2 -11 6 -14 6c-1 0 -3 2 -4 3s-2 2 -3 2c-2 0 -9 3 -10 5c0 1 -3 3 -6 4s-5 3 -5 3c0 1 -6 3 -8 3c-1 0 -1 0 0 -3c1 -2 1 -3 2 -4s2 -3 3 -5s3 -4 4 -5c2 -2 4 -6 6 -12c1 -3 2 -6 3 -7s2 -3 2 -4s1 -3 2 -3s1 -2 1 -3s0 -2 1 -2c2 0 4 -9 3 -15c0 -3 -1 -8 -1 -10
c0 -3 -5 -10 -26 -39c-14 -19 -27 -37 -28 -38c-2 -2 -2 -2 -5 0zM364 244c-2 0 -4 2 -5 3s-3 1 -5 2s-3 2 -3 3s-1 3 -2 3s-4 3 -7 5s-5 4 -6 4s-1 1 -1 2s-1 2 -2 3s-2 2 -2 4s-1 4 -2 5c-2 2 -3 4 -3 9v7l17 23c10 13 18 25 19 26s2 1 6 -1c3 -1 6 -4 8 -5s4 -2 5 -2
s2 -1 3 -2s4 -2 6 -3c6 -3 13 -10 16 -16c1 -2 3 -5 3 -5s2 -2 3 -5s2 -5 3 -5s1 -1 1 -2s-1 -3 0 -3c2 -1 2 -16 0 -17c-1 0 0 -1 0 -3s0 -3 -1 -3s-2 -1 -3 -4c-1 -4 -6 -10 -11 -12c-1 0 -2 -1 -2 -2s-2 -2 -5 -3s-6 -3 -7 -4c-2 -2 -5 -2 -12 -2h-11zM279 335
c0 1 -3 0 -5 0s-6 0 -9 1s-7 2 -8 2s-3 0 -3 1s-4 2 -8 3s-7 3 -8 4s-4 3 -8 4s-7 2 -7 3s-2 2 -4 2c-4 1 -9 4 -9 6c0 1 -1 2 -3 3l-4 2v9c0 5 1 9 2 9s1 1 1 2c-1 2 6 8 12 9c3 1 6 2 7 3c3 4 36 3 36 -1c0 -1 1 -1 3 -1c6 0 21 -8 27 -14c1 -1 2 -2 3 -2s2 -2 3 -4
s3 -3 4 -3s2 -1 3 -2c2 -2 2 -3 -10 -19c-7 -9 -12 -18 -13 -18s-2 0 -2 1z" />
    <glyph glyph-name="sphere_solid" unicode="&#xf11b;" horiz-adv-x="513" 
d="M20 190c0 131 105 236 236 236s237 -105 237 -236s-106 -237 -237 -237s-236 106 -236 237zM0 190c0 -142 114 -257 256 -257s257 115 257 257s-115 256 -257 256s-256 -114 -256 -256zM276 -3c-15 -1 -29 1 -41 8l-8 -13c15 -10 33 -13 51 -11c17 1 34 8 51 16
s32 19 46 32c22 20 39 44 43 68l-15 3c-5 -20 -19 -42 -38 -60c-13 -11 -29 -21 -44 -29c-15 -7 -31 -12 -45 -14z" />
    <glyph glyph-name="neurolex" unicode="&#xf108;" horiz-adv-x="403" 
d="M22 -40l-22 25v206v206h177l176 1l1 25c0 14 1 25 1 25c1 0 14 -12 26 -25l22 -24v-206v-206l-178 -1h-178l-1 -25l-2 -25zM297 222c0 72 1 73 20 76c6 1 11 2 11 3s0 3 1 6c2 4 -2 5 -41 4c-36 -1 -44 -1 -44 -5c0 -3 5 -5 16 -7c23 -4 24 -6 25 -93
c1 -40 -1 -73 -2 -73s-6 5 -10 11s-17 24 -29 39s-28 35 -35 45s-15 21 -17 23s-5 6 -7 10s-12 17 -21 29l-16 22h-36c-33 0 -37 -1 -36 -6c1 -3 6 -6 13 -7c21 -3 20 1 20 -104c0 -52 -2 -96 -3 -98s-9 -6 -17 -8c-9 -2 -15 -5 -15 -8s9 -4 43 -5c27 -1 43 0 45 2
c4 4 -2 9 -12 9c-13 0 -23 7 -26 18c-5 17 -4 173 1 173c2 0 9 -7 15 -16s15 -21 21 -28s17 -20 24 -30c16 -19 29 -40 42 -58c9 -13 22 -28 27 -34s15 -18 21 -27s19 -18 21 -18c0 49 0 98 1 155z" />
    <glyph glyph-name="shapeshow" unicode="&#xf122;" 
d="M396 117c-3 1 -7 3 -9 4c-4 3 -15 15 -17 18c-1 1 -2 15 -3 31c-1 24 -1 29 -3 33c-1 2 -3 7 -4 10s-1 6 -2 7c-2 2 -9 2 -12 0c-2 -2 -3 -2 -2 -13c1 -6 1 -18 1 -26c0 -15 0 -16 -4 -24s-4 -8 -9 -10s-8 -3 -20 -3c-18 0 -25 1 -35 7c-4 3 -12 7 -16 9
c-7 3 -11 6 -23 19c-28 29 -27 29 -29 36c-1 4 -2 8 -3 9c-1 2 -1 3 0 4s2 2 2 3s1 4 2 7c2 4 4 6 7 7c2 1 4 3 5 5c4 9 5 13 8 15c2 1 5 6 7 10s4 11 6 14c3 6 4 15 1 15c-1 0 -3 -3 -6 -6s-8 -8 -11 -10c-6 -3 -7 -5 -16 -5s-10 0 -18 4c-4 2 -9 4 -10 4s-3 2 -4 3
s-3 3 -5 3s-5 2 -7 3s-6 5 -10 7c-7 4 -12 5 -12 3c0 -1 4 -6 8 -12s7 -12 7 -13s2 -6 5 -11s5 -11 6 -13s2 -10 2 -24c0 -11 1 -23 2 -25c1 -4 12 -21 18 -28c2 -2 3 -4 3 -5s1 -2 2 -4c6 -8 1 -22 -14 -32c-7 -5 -15 -6 -26 -5s-17 2 -21 6c-2 2 -3 3 -4 3s-2 1 -2 2
s-4 3 -7 5c-11 6 -14 12 -16 28c0 4 -1 10 -2 13c-1 4 -1 5 0 6s1 3 1 4s1 4 3 7c2 5 2 7 1 10c-2 4 -8 9 -13 11c-2 1 -4 2 -5 3c-2 3 -9 4 -11 2s-2 -2 -1 -7c1 -3 2 -7 2 -10s0 -6 1 -7c1 -2 1 -4 -2 -10c-4 -8 -10 -13 -18 -16c-7 -2 -21 -2 -27 1c-5 2 -26 21 -26 24
c0 1 -2 4 -4 7c-4 5 -5 7 -6 15c-2 12 -1 20 5 29c2 3 4 7 4 8c0 2 9 9 12 9c1 0 3 1 5 3c3 3 5 4 13 4c7 0 10 -1 12 -2c13 -8 22 -15 23 -16s4 -3 7 -5c8 -5 16 -13 16 -17v-3l5 2c8 2 10 4 13 8c2 3 3 5 3 8c0 6 -3 10 -9 14s-15 16 -16 22c-1 3 0 5 2 9c2 3 3 7 3 9
c1 6 13 19 20 23c6 3 5 5 5 9c0 3 -6 12 -8 13c-4 2 -6 1 -12 -8c-3 -5 -6 -9 -6 -10s-3 -5 -6 -9c-4 -5 -8 -9 -11 -10s-5 -2 -6 -3c-5 -3 -9 -3 -18 -3s-14 1 -16 4l-6 2c-4 2 -6 3 -10 9c-3 4 -5 8 -5 9s0 3 -1 4s-1 3 1 8c4 11 7 14 11 17c2 2 6 4 8 6c4 3 8 5 16 7
c2 1 4 1 5 2s6 2 11 3c11 1 12 2 15 6c3 5 8 10 10 10c3 0 4 3 2 4c-1 1 -1 1 0 3c2 4 12 13 15 14c2 0 6 2 8 3s4 2 4 1s4 -3 8 -4s10 -4 14 -6s9 -5 10 -6c5 -3 21 -18 21 -20c0 -1 2 -4 4 -8c5 -8 5 -10 7 -20c1 -4 2 -8 3 -9s0 -3 -1 -4s0 -2 0 -3c1 -1 1 -1 4 0
c2 1 6 2 11 3s11 2 15 4c5 3 9 4 20 4c17 1 22 0 28 -5c3 -2 5 -4 6 -4s2 0 2 -1s2 -2 4 -3c6 -2 7 0 8 9c1 7 1 7 -5 16c-5 7 -7 9 -9 9c-4 0 -19 3 -22 5c-2 1 -5 2 -8 3s-6 2 -8 3s-5 3 -7 4c-11 4 -20 9 -21 11c0 1 -1 3 -3 4c-3 1 -3 2 -3 7c0 10 2 15 7 19
c3 2 6 4 7 4s4 1 6 2c4 2 5 3 18 3c11 0 15 -1 18 -2c2 -1 6 -3 10 -4c8 -2 18 -9 26 -16c3 -3 6 -5 6 -5l12 -10c12 -10 13 -11 29 -14c5 -1 11 -2 14 -3l9 -3s7 -3 10 -5s5 -3 5 -3s4 -2 7 -4c9 -5 16 -12 21 -21c3 -4 5 -9 6 -10s2 -3 2 -4c0 -3 1 -19 0 -21
c-1 -4 -7 -14 -10 -16c-4 -3 -12 -9 -13 -9s-3 -1 -5 -3c-4 -3 -6 -2 -15 -2c-11 0 -15 1 -22 8c-2 2 -6 4 -10 7s-7 5 -7 6s0 3 -1 4c-4 6 -7 16 -7 19c0 11 -4 11 -10 2c-2 -3 -6 -7 -7 -8c-5 -4 -28 -26 -34 -34c-9 -11 -14 -18 -15 -21s2 -6 5 -4s20 9 27 10
c10 2 39 2 45 0c3 -1 8 -3 10 -5s6 -3 7 -3s2 0 2 -1s3 -2 6 -4s9 -5 12 -8s6 -5 7 -5c2 0 7 -6 7 -8c0 -1 2 -2 3 -3c4 -2 9 -7 11 -11c1 -2 2 -6 4 -8c3 -3 3 -3 1 -6s-1 -4 1 -5s3 -4 4 -19c1 -10 2 -19 3 -20s0 -4 -1 -6c-1 -3 -1 -3 1 -5c3 -3 18 2 28 11
c5 4 11 9 15 11s7 6 7 7c1 3 -2 7 -7 9c-6 3 -17 12 -19 16c-1 2 -2 4 -4 5c-4 2 -14 15 -19 24c-3 5 -4 8 -4 12c0 13 5 20 17 21c15 2 36 -4 40 -12c1 -2 3 -3 3 -3v-2s1 -2 1 -2c1 -1 7 -10 7 -12c0 -1 2 -3 3 -5s2 -3 2 -4s2 -4 3 -6c6 -9 7 -12 9 -17c1 -3 3 -6 4 -7
s3 -4 3 -4l4 -6l4 -6l-1 -10c0 -6 -1 -11 -2 -12s-2 -5 -4 -10c-6 -16 -16 -28 -27 -32c-4 -1 -7 -2 -8 -3c-3 -4 -15 -9 -23 -11c-11 -2 -44 -2 -51 0z" />
    <glyph glyph-name="analysis" unicode="&#xf120;" horiz-adv-x="509" 
d="M307 438c29 0 38 -40 47 -107c-14 -25 -24 -52 -27 -81c-3 16 -5 34 -8 55s-7 48 -11 69c-5 -28 -10 -69 -13 -100c-4 -35 -7 -72 -12 -99c-5 -30 -13 -60 -37 -60c-25 0 -32 32 -36 48c-5 21 -9 49 -13 76c-3 24 -8 57 -13 77c-4 -14 -7 -34 -10 -47
c-4 -19 -8 -39 -13 -54c-3 -9 -12 -37 -36 -37c-27 0 -37 30 -46 56c-3 8 -7 22 -10 27h-69v37h74c25 0 33 -26 41 -52c2 -6 6 -17 9 -24c5 14 10 39 13 55c4 19 8 39 13 54c3 9 12 37 36 37c25 0 32 -32 36 -48c5 -21 8 -49 12 -76c3 -20 7 -46 11 -66c5 28 10 69 13 100
c4 35 8 73 13 100c5 30 12 60 36 60zM393 277c11 25 26 37 45 36l71 -3l-2 -39l-70 3c-1 -1 -6 -4 -11 -18c-5 -13 -9 -29 -13 -44c-3 -13 -6 -25 -10 -35c-3 -7 -10 -28 -30 -27c-32 2 -38 48 -47 113c-1 4 -1 9 -2 14c4 21 14 40 30 55c4 -18 7 -39 10 -63
c2 -16 5 -38 9 -56l3 9c5 18 10 39 17 55zM56 -8c-14 -8 -31 -3 -39 11s-4 30 10 38l90 52c7 4 14 5 21 3c-16 47 3 100 47 125c50 29 114 11 143 -39s12 -114 -38 -143c-44 -25 -100 -15 -132 22c-2 -7 -6 -13 -13 -17zM174 93c20 -35 65 -46 100 -26s46 64 26 99
s-64 47 -99 27s-47 -65 -27 -100z" />
    <glyph glyph-name="ion-channel" unicode="&#xf106;" 
d="M185 402c9 0 18 -2 27 -6h1v-1c16 -14 23 -31 25 -49s1 -36 2 -51c3 -15 1 -29 -1 -42s-3 -26 2 -38v0v0c3 -7 1 -15 -1 -21s-6 -12 -9 -17s-6 -10 -8 -15s-3 -8 -1 -13l1 -1v-2c-2 -36 5 -73 2 -111c6 -16 1 -33 -12 -43s-33 -14 -54 -7c-12 1 -20 4 -27 9
s-11 11 -12 18c-3 13 2 27 9 39c7 33 2 69 3 105v-1v10l-132 -10v24c53 5 89 9 132 12c1 39 6 77 -10 113v1v0c-2 9 -5 18 -6 28v0v1c2 17 13 38 30 52c8 7 19 13 30 15c3 1 6 1 9 1zM327 402c3 0 6 0 9 -1c11 -2 22 -8 30 -15c17 -14 28 -35 30 -52v-1v0
c-1 -10 -4 -19 -6 -28v0v-1c-16 -36 -11 -74 -10 -113c43 -3 79 -7 132 -12v-24l-132 10v-10v1c1 -36 -4 -72 3 -105c7 -12 12 -26 9 -39c-1 -7 -5 -13 -12 -18s-15 -8 -27 -9c-21 -7 -41 -3 -54 7s-18 27 -12 43c-3 38 4 75 2 111v2l1 1c2 5 1 8 -1 13s-5 10 -8 15
s-7 11 -9 17s-4 14 -1 21v0v0c5 12 4 25 2 38s-4 27 -1 42c1 15 0 33 2 51s9 35 25 49v1h1c9 4 18 6 27 6zM185 390c-2 0 -5 -1 -7 -1c-9 -2 -17 -6 -24 -12c-14 -12 -25 -32 -26 -44c1 -8 3 -17 5 -25c22 -51 9 -103 11 -152v0v0c-1 -35 4 -71 -3 -107v-2h-1
c-6 -10 -11 -24 -9 -33c1 -4 4 -8 8 -11s11 -5 21 -6h1h1c18 -6 33 -3 43 5s14 18 9 30l-1 2l1 1c3 36 -5 73 -3 111c-2 7 -1 14 1 20s6 13 9 18s6 10 8 14s2 9 1 13c-6 15 -5 29 -3 43s4 27 2 40v0v0c-2 17 -1 34 -3 50s-7 30 -20 42c-7 3 -14 4 -21 4zM327 390
c-7 0 -14 -1 -21 -4c-13 -12 -18 -26 -20 -42s-1 -33 -3 -50v0v0c-2 -13 0 -26 2 -40s3 -28 -3 -43c-1 -4 -1 -9 1 -13s5 -9 8 -14s7 -12 9 -18s3 -13 1 -20c2 -38 -6 -75 -3 -111l1 -1l-1 -2c-5 -12 -1 -22 9 -30s25 -11 43 -5h1h1c10 1 17 3 21 6s7 7 8 11
c2 9 -3 23 -9 33h-1v2c-7 36 -2 72 -3 107v0v0c2 49 -11 101 11 152c2 8 4 17 5 25c-1 12 -12 32 -26 44c-7 6 -15 10 -24 12c-2 0 -5 1 -7 1z" />
    <glyph glyph-name="pyramidal-cell" unicode="&#xf10c;" horiz-adv-x="416" 
d="M150 440c4 -2 10 -24 21 -73c14 -60 8 -136 11 -179c11 -19 20 -39 29 -58c20 -40 46 -63 74 -98c17 -25 45 -41 75 -48c23 -6 36 1 56 11c-29 -29 -67 -29 -101 -8c-19 15 -41 29 -65 34c-62 18 -140 7 -187 -11c-13 -12 -28 -35 -40 -54c-3 -11 -14 -12 -23 -17
c16 25 36 55 56 77c21 29 43 49 64 78c18 32 32 53 44 88c6 23 4 62 3 86c-2 36 -4 107 -17 141c-2 7 -9 23 0 31zM176 168h-1h-1c-9 -20 -16 -29 -31 -56c-28 -37 -42 -59 -65 -88c57 12 123 25 180 7c25 -12 -3 12 -8 22c-33 38 -51 71 -74 115zM175 94c8 0 15 -2 20 -5
s9 -9 9 -15s-4 -12 -9 -15s-12 -5 -20 -5s-15 0 -20 3s-10 11 -10 17s5 10 10 13s12 7 20 7zM175 84c-6 0 -12 -3 -15 -5s-4 -5 -4 -7s3 -5 6 -7s8 -3 14 -3s12 2 15 4s3 6 3 8s-1 4 -4 6s-9 4 -15 4z" />
    <glyph glyph-name="gpt_logo" unicode="&#xf104;" 
d="M217 448h78v-205l193 63l24 -74l-193 -62l120 -166l-63 -46l-120 166l-120 -166l-63 46l120 166l-193 62l24 74l193 -63v205zM256 191l-1 -3l1 -1l1 1z" />
    <glyph glyph-name="3dshow" unicode="&#xf115;" 
d="M271 -35c-19 5 -34 21 -38 40c-2 8 -1 23 2 30c3 8 10 17 16 22c3 2 6 5 7 5s0 8 -4 21l-7 20l-10 -1c-18 -1 -35 4 -48 16l-7 6l-5 -1c-6 -2 -45 -14 -60 -19l-10 -3l-1 -8c-2 -29 -24 -51 -53 -51c-16 0 -29 5 -40 17c-28 31 -10 81 31 88c20 3 42 -6 54 -23l2 -4l13 4
c7 2 23 7 35 11s23 8 23 8s-1 2 -2 5c-3 6 -3 26 -1 34c3 12 9 23 18 32c5 5 11 10 14 12s7 3 7 3s-3 12 -12 39c-6 18 -18 58 -21 67l-2 6h-5c-24 0 -45 15 -53 38c-2 7 -2 23 0 30c10 30 40 45 68 36c37 -12 49 -59 21 -87c-4 -4 -7 -7 -9 -8l-3 -2l9 -30
c15 -48 23 -75 25 -79l2 -4l9 -1c21 -2 36 -11 49 -27c5 -6 7 -12 10 -20l2 -6h5c6 0 100 12 103 13c2 0 3 3 4 7c7 21 28 35 51 35c22 0 39 -11 48 -31c3 -7 4 -8 4 -21c0 -14 -1 -14 -5 -23c-14 -28 -45 -38 -72 -24c-13 7 -24 21 -27 34c-1 3 -1 4 -4 3
c-2 0 -23 -3 -47 -6c-49 -6 -59 -7 -59 -8c0 0 0 -3 -1 -7c-3 -14 -13 -29 -25 -38c-6 -4 -6 -6 -5 -8c1 -1 3 -10 6 -20l6 -18h7c4 0 10 -1 14 -2c32 -10 47 -46 32 -76c-3 -6 -14 -16 -20 -20c-12 -7 -28 -10 -41 -6zM300 -13c13 6 19 17 18 31c-2 33 -44 43 -61 15
c-5 -8 -7 -22 -3 -30c8 -18 28 -25 46 -16zM68 65c14 7 22 23 17 39c-3 9 -12 19 -21 22c-16 5 -32 -1 -40 -15c-4 -8 -5 -15 -3 -23c4 -22 27 -33 47 -23zM251 126c20 9 32 32 26 53c-4 14 -13 25 -26 31c-6 3 -7 3 -18 3c-10 0 -13 0 -19 -3c-7 -3 -17 -12 -21 -18
c-6 -9 -9 -27 -5 -39s15 -24 28 -29c8 -3 26 -2 35 2zM475 154c20 10 24 38 7 54c-7 6 -13 9 -23 9c-18 0 -32 -15 -32 -33c0 -14 9 -29 23 -33c6 -2 18 0 25 3zM176 364c9 3 18 11 21 20c4 13 0 29 -11 37c-22 17 -53 2 -53 -26c0 -23 20 -38 43 -31z" />
    <glyph glyph-name="telescope_tbo_outline" unicode="&#xf11e;" 
d="M500 324v0l-56 112v0l-155 -77v-1l55 -111v0v0zM301 240l26 13l-44 88l-132 -65v-1l44 -87v0l20 10c-2 5 -3 10 -3 16c0 27 21 49 48 49c17 0 32 -9 41 -23zM260 178c20 0 37 16 37 36c0 5 -2 11 -4 16c-6 13 -19 20 -33 20c-20 0 -36 -16 -36 -36c0 -6 1 -11 4 -16v-1
c6 -12 18 -19 32 -19zM85 159l89 44l-24 47l-88 -45zM59 116l27 13l-47 95l-27 -13v0l47 -95v0v0zM455 441l56 -111c3 -6 0 -14 -6 -17l-156 -77c-2 -1 -3 -1 -5 -1c-5 0 -9 3 -11 7h-1l-26 -13c2 -5 3 -10 3 -15c0 -18 -10 -34 -25 -42l74 -165c1 -3 0 -7 -3 -8h-3
c-2 0 -4 1 -5 3l-75 165c-4 -1 -8 -1 -12 -1s-7 0 -11 1l-75 -165c-1 -2 -4 -3 -6 -3h-2c-3 1 -4 5 -3 8l74 165c-7 4 -13 9 -17 15l-20 -10c-2 -1 -3 -1 -5 -1h-4c-3 1 -6 3 -7 6l-5 10l-89 -44l12 -24l-37 -19c-2 -1 -4 -1 -6 -1c-5 0 -9 3 -11 7l-47 94c-1 3 -1 7 0 10
s3 6 6 7l37 18l12 -24l89 45l-5 9c-1 3 -1 6 0 9s3 7 6 8l132 65v1c-3 6 -1 14 5 17l156 77c2 1 3 1 5 1c5 0 9 -3 11 -7z" />
    <glyph glyph-name="hideplane" unicode="&#xf116;" horiz-adv-x="449" 
d="M43 -55c-7 5 -12 11 -12 12c1 2 359 491 360 491s28 -19 28 -20c-1 -2 -361 -492 -362 -492c0 0 -7 4 -14 9zM317 38c-79 26 -130 43 -130 44c0 2 15 22 16 22c0 0 49 -16 109 -36s109 -36 110 -36s1 42 1 94l-1 95l-52 18c-29 10 -52 18 -53 18c-2 1 13 22 16 22
c1 0 28 -9 59 -19l57 -19v-123c0 -98 0 -123 -1 -123s-60 19 -131 43zM58 123l-58 19v124v123l38 -12c151 -49 224 -75 223 -76c-3 -5 -15 -21 -16 -21s-49 17 -108 36s-108 35 -109 35s-1 -18 -1 -95v-94l53 -18l53 -17l-8 -12l-9 -11z" />
  </font>
</defs>
</svg>
